<svg width="37" height="38" viewBox="0 0 37 38" fill="none" xmlns="http://www.w3.org/2000/svg">
<g id="ix:user-profile-filled">
<path id="Vector" fill-rule="evenodd" clip-rule="evenodd" d="M18.5 3.61461C20.5246 3.6146 22.5293 4.01335 24.3997 4.78811C26.2702 5.56286 27.9697 6.69844 29.4013 8.13001C30.8329 9.56158 31.9684 11.2611 32.7432 13.1315C33.518 15.002 33.9167 17.0067 33.9167 19.0312C33.9167 27.5457 27.0144 34.448 18.5 34.448C9.98568 34.448 3.08337 27.5457 3.08337 19.0312C3.08337 10.5169 9.98568 3.61461 18.5 3.61461ZM20.0417 20.573H16.9584C13.1417 20.573 9.86492 22.8845 8.45163 26.1842C10.6878 29.3199 14.3552 31.3646 18.5 31.3646C22.6449 31.3646 26.3122 29.3199 28.5485 26.184C27.1352 22.8845 23.8584 20.573 20.0417 20.573ZM18.5 8.23961C15.9457 8.23961 13.875 10.3103 13.875 12.8646C13.875 15.4189 15.9457 17.4896 18.5 17.4896C21.0543 17.4896 23.125 15.4189 23.125 12.8646C23.125 10.3103 21.0544 8.23961 18.5 8.23961Z" fill="#4A4A4A"/>
</g>
</svg>
